<svg width="22" height="22" viewBox="0 0 22 22" fill="none" xmlns="http://www.w3.org/2000/svg">
<path d="M17.9808 6.83982L17.4519 15.8361C17.4234 16.321 17.2107 16.7767 16.8572 17.1098C16.5038 17.443 16.0363 17.6285 15.5506 17.6283H6.44938C5.96366 17.6285 5.49623 17.443 5.14278 17.1098C4.78932 16.7767 4.57657 16.321 4.54808 15.8361L4.01923 6.83982M11 9.37829V15.0898M11 15.0898L8.46154 12.5514M11 15.0898L13.5385 12.5514M3.70192 6.83982H18.2981C18.8235 6.83982 19.25 6.41336 19.25 5.8879V4.61867C19.25 4.09321 18.8235 3.66675 18.2981 3.66675H3.70192C3.17646 3.66675 2.75 4.09321 2.75 4.61867V5.8879C2.75 6.41336 3.17646 6.83982 3.70192 6.83982Z" stroke="white" stroke-width="1.5" stroke-linecap="round" stroke-linejoin="round"/>
</svg>
