<svg width="22" height="22" viewBox="0 0 22 22" fill="none" xmlns="http://www.w3.org/2000/svg">
<path d="M10.4042 3.51633C10.3446 3.70883 10.3125 3.91325 10.3125 4.125C10.3125 4.5045 10.6205 4.8125 11 4.8125H15.125C15.3073 4.8125 15.4822 4.74007 15.6111 4.61114C15.7401 4.4822 15.8125 4.30734 15.8125 4.125C15.8126 3.91867 15.7817 3.71349 15.7208 3.51633M10.4042 3.51633C10.5344 3.09531 10.7959 2.72702 11.1506 2.46541C11.5052 2.2038 11.9343 2.0626 12.375 2.0625H13.75C14.6777 2.0625 15.4614 2.67483 15.7208 3.51633M10.4042 3.51633C10.0595 3.53742 9.71667 3.56217 9.37383 3.58967C8.33708 3.67583 7.5625 4.55858 7.5625 5.599V7.5625M15.7208 3.51633C16.0655 3.53742 16.4083 3.56217 16.7512 3.58967C17.7879 3.67583 18.5625 4.55858 18.5625 5.599V15.125C18.5625 15.672 18.3452 16.1966 17.9584 16.5834C17.5716 16.9702 17.047 17.1875 16.5 17.1875H14.4375M7.5625 7.5625H4.46875C3.8995 7.5625 3.4375 8.0245 3.4375 8.59375V18.9063C3.4375 19.4755 3.8995 19.9375 4.46875 19.9375H13.4063C13.9755 19.9375 14.4375 19.4755 14.4375 18.9063V17.1875M7.5625 7.5625H13.4063C13.9755 7.5625 14.4375 8.0245 14.4375 8.59375V17.1875M6.875 14.4375L8.25 15.8125L11 12.375" stroke="white" stroke-width="1.5" stroke-linecap="round" stroke-linejoin="round"/>
</svg>
