<svg xmlns="http://www.w3.org/2000/svg" width="30" height="30" viewBox="0 0 30 30">
  <g id="Tasks" transform="translate(3017 -643)">
    <rect id="Rectangle_1" data-name="Rectangle 1" width="30" height="30" transform="translate(-3017 643)" opacity="0"/>
    <path id="Path_2596" data-name="Path 2596" d="M587.608,303.75h6.661a.914.914,0,0,0,.914-.914h0a.914.914,0,0,0-.914-.914h-1.185a2.182,2.182,0,1,0-4.289,0h-1.186a.915.915,0,0,0-.914.914h0A.915.915,0,0,0,587.608,303.75Zm3.33-3.459a.806.806,0,1,1-.806.807A.807.807,0,0,1,590.938,300.291Zm6.047,3.481a2.878,2.878,0,0,1-2.717,1.937h-6.661a2.878,2.878,0,0,1-2.716-1.937,2.431,2.431,0,0,0-2.117,2.411v14.725a2.433,2.433,0,0,0,2.433,2.432h11.459a2.433,2.433,0,0,0,2.433-2.432V306.183A2.431,2.431,0,0,0,596.985,303.772Zm-12.059,5.883h5.224v1.829h-5.224Zm8.051,8.631h-8.051v-1.829h8.051Zm3.1-3.4H584.926v-1.829h11.152Z" transform="translate(-3592.776 346.66)"/>
  </g>
</svg>
