<svg width="126" height="40" viewBox="0 0 126 40" fill="none" xmlns="http://www.w3.org/2000/svg">
<path d="M0 4C0 1.79086 1.79086 0 4 0H122C124.209 0 126 1.79086 126 4V36C126 38.2091 124.209 40 122 40H4C1.79086 40 0 38.2091 0 36V4Z" fill="#0E7490"/>
<path d="M18.3389 18.1355C16.1374 18.659 14.5 20.6383 14.5 23C14.5 25.7614 16.7386 28 19.5 28C19.9737 28 20.432 27.9341 20.8663 27.811" stroke="white" stroke-linecap="round" stroke-linejoin="round"/>
<path d="M30.5274 18.1355C32.7289 18.659 34.3662 20.6383 34.3662 23C34.3662 25.7614 32.1277 28 29.3662 28C28.8925 28 28.4342 27.9341 28 27.811" stroke="white" stroke-linecap="round" stroke-linejoin="round"/>
<path d="M30.5 18C30.5 14.6863 27.8137 12 24.5 12C21.1863 12 18.5 14.6863 18.5 18" stroke="white" stroke-linecap="round" stroke-linejoin="round"/>
<path d="M21.0327 21.9406L24.5 18.4619L28.0659 22.0001" stroke="white" stroke-linecap="round" stroke-linejoin="round"/>
<path d="M24.5 27L24.5 19" stroke="white" stroke-linecap="round" stroke-linejoin="round"/>
<path d="M47.3496 15.0469H48.6621V21.7803C48.6621 22.5277 48.4958 23.1497 48.1631 23.6465C47.8304 24.1432 47.3883 24.5169 46.8369 24.7676C46.29 25.0137 45.6953 25.1367 45.0527 25.1367C44.3783 25.1367 43.7676 25.0137 43.2207 24.7676C42.6784 24.5169 42.2477 24.1432 41.9287 23.6465C41.6143 23.1497 41.457 22.5277 41.457 21.7803V15.0469H42.7627V21.7803C42.7627 22.2998 42.8584 22.7282 43.0498 23.0654C43.2412 23.4027 43.5078 23.6533 43.8496 23.8174C44.196 23.9814 44.597 24.0635 45.0527 24.0635C45.513 24.0635 45.9141 23.9814 46.2559 23.8174C46.6022 23.6533 46.8711 23.4027 47.0625 23.0654C47.2539 22.7282 47.3496 22.2998 47.3496 21.7803V15.0469ZM52.0866 19.0254V27.8438H50.8152V17.6035H51.9773L52.0866 19.0254ZM57.07 21.2402V21.3838C57.07 21.9215 57.0062 22.4206 56.8786 22.8809C56.751 23.3366 56.5642 23.7331 56.3181 24.0703C56.0765 24.4076 55.778 24.6696 55.4226 24.8564C55.0671 25.0433 54.6592 25.1367 54.1989 25.1367C53.7295 25.1367 53.3148 25.0592 52.9548 24.9043C52.5948 24.7493 52.2894 24.5238 52.0388 24.2275C51.7881 23.9313 51.5876 23.5758 51.4372 23.1611C51.2914 22.7464 51.1911 22.2793 51.1364 21.7598V20.9941C51.1911 20.4473 51.2937 19.9574 51.4441 19.5244C51.5945 19.0915 51.7927 18.7223 52.0388 18.417C52.2894 18.1071 52.5925 17.8724 52.948 17.7129C53.3034 17.5488 53.7136 17.4668 54.1784 17.4668C54.6433 17.4668 55.0557 17.5579 55.4157 17.7402C55.7758 17.918 56.0788 18.1732 56.3249 18.5059C56.571 18.8385 56.7556 19.2373 56.8786 19.7021C57.0062 20.1624 57.07 20.6751 57.07 21.2402ZM55.7986 21.3838V21.2402C55.7986 20.8711 55.7598 20.5247 55.6823 20.2012C55.6049 19.873 55.4841 19.5859 55.32 19.3398C55.1605 19.0892 54.9555 18.8932 54.7048 18.752C54.4542 18.6061 54.1557 18.5332 53.8093 18.5332C53.4903 18.5332 53.2123 18.5879 52.9753 18.6973C52.7429 18.8066 52.5446 18.9548 52.3806 19.1416C52.2165 19.3239 52.0821 19.5335 51.9773 19.7705C51.877 20.0029 51.8018 20.2445 51.7517 20.4951V22.2656C51.8428 22.5846 51.9704 22.8854 52.1345 23.168C52.2986 23.446 52.5173 23.6715 52.7907 23.8447C53.0642 24.0133 53.4083 24.0977 53.823 24.0977C54.1648 24.0977 54.4587 24.027 54.7048 23.8857C54.9555 23.7399 55.1605 23.5417 55.32 23.291C55.4841 23.0404 55.6049 22.7533 55.6823 22.4297C55.7598 22.1016 55.7986 21.7529 55.7986 21.3838ZM60.3373 14.5V25H59.0659V14.5H60.3373ZM62.3127 21.3838V21.2266C62.3127 20.6934 62.3901 20.1989 62.5451 19.7432C62.7 19.2829 62.9233 18.8841 63.215 18.5469C63.5067 18.2051 63.8599 17.9408 64.2746 17.7539C64.6893 17.5625 65.1541 17.4668 65.6691 17.4668C66.1886 17.4668 66.6558 17.5625 67.0705 17.7539C67.4897 17.9408 67.8452 18.2051 68.1369 18.5469C68.4331 18.8841 68.6587 19.2829 68.8136 19.7432C68.9686 20.1989 69.0461 20.6934 69.0461 21.2266V21.3838C69.0461 21.917 68.9686 22.4115 68.8136 22.8672C68.6587 23.3229 68.4331 23.7217 68.1369 24.0635C67.8452 24.4007 67.492 24.665 67.0773 24.8564C66.6671 25.0433 66.2023 25.1367 65.6828 25.1367C65.1632 25.1367 64.6961 25.0433 64.2814 24.8564C63.8667 24.665 63.5112 24.4007 63.215 24.0635C62.9233 23.7217 62.7 23.3229 62.5451 22.8672C62.3901 22.4115 62.3127 21.917 62.3127 21.3838ZM63.5773 21.2266V21.3838C63.5773 21.7529 63.6206 22.1016 63.7072 22.4297C63.7938 22.7533 63.9237 23.0404 64.0968 23.291C64.2746 23.5417 64.4956 23.7399 64.7599 23.8857C65.0242 24.027 65.3319 24.0977 65.6828 24.0977C66.0291 24.0977 66.3322 24.027 66.592 23.8857C66.8563 23.7399 67.075 23.5417 67.2482 23.291C67.4214 23.0404 67.5513 22.7533 67.6379 22.4297C67.729 22.1016 67.7746 21.7529 67.7746 21.3838V21.2266C67.7746 20.862 67.729 20.5179 67.6379 20.1943C67.5513 19.8662 67.4191 19.5768 67.2414 19.3262C67.0682 19.071 66.8494 18.8704 66.5851 18.7246C66.3254 18.5788 66.02 18.5059 65.6691 18.5059C65.3227 18.5059 65.0174 18.5788 64.7531 18.7246C64.4933 18.8704 64.2746 19.071 64.0968 19.3262C63.9237 19.5768 63.7938 19.8662 63.7072 20.1943C63.6206 20.5179 63.5773 20.862 63.5773 21.2266ZM75.2733 23.7354V19.9277C75.2733 19.6361 75.2141 19.3831 75.0956 19.1689C74.9817 18.9502 74.8085 18.7816 74.5761 18.6631C74.3436 18.5446 74.0565 18.4854 73.7147 18.4854C73.3957 18.4854 73.1154 18.54 72.8739 18.6494C72.6369 18.7588 72.4501 18.9023 72.3134 19.0801C72.1812 19.2578 72.1151 19.4492 72.1151 19.6543H70.8505C70.8505 19.39 70.9188 19.1279 71.0555 18.8682C71.1923 18.6084 71.3882 18.3737 71.6434 18.1641C71.9032 17.9499 72.2131 17.7812 72.5731 17.6582C72.9377 17.5306 73.3433 17.4668 73.7899 17.4668C74.3277 17.4668 74.8016 17.5579 75.2118 17.7402C75.6265 17.9225 75.9501 18.1982 76.1825 18.5674C76.4195 18.932 76.538 19.39 76.538 19.9414V23.3867C76.538 23.6328 76.5585 23.8949 76.5995 24.1729C76.6451 24.4508 76.7111 24.6901 76.7977 24.8906V25H75.4784C75.4146 24.8542 75.3645 24.6605 75.328 24.4189C75.2916 24.1729 75.2733 23.945 75.2733 23.7354ZM75.4921 20.5156L75.5057 21.4043H74.2274C73.8674 21.4043 73.5461 21.4339 73.2636 21.4932C72.981 21.5479 72.744 21.6322 72.5526 21.7461C72.3612 21.86 72.2154 22.0036 72.1151 22.1768C72.0149 22.3454 71.9647 22.5436 71.9647 22.7715C71.9647 23.0039 72.0171 23.2158 72.122 23.4072C72.2268 23.5986 72.384 23.7513 72.5936 23.8652C72.8078 23.9746 73.0699 24.0293 73.3798 24.0293C73.7671 24.0293 74.1089 23.9473 74.4052 23.7832C74.7014 23.6191 74.9361 23.4186 75.1093 23.1816C75.287 22.9447 75.3827 22.7145 75.3964 22.4912L75.9364 23.0996C75.9045 23.291 75.8179 23.5029 75.6766 23.7354C75.5354 23.9678 75.3462 24.1911 75.1093 24.4053C74.8768 24.6149 74.5988 24.7904 74.2753 24.9316C73.9563 25.0684 73.5962 25.1367 73.1952 25.1367C72.6939 25.1367 72.2541 25.0387 71.8759 24.8428C71.5022 24.6468 71.2105 24.3848 71.0009 24.0566C70.7958 23.724 70.6932 23.3525 70.6932 22.9424C70.6932 22.5459 70.7707 22.1973 70.9257 21.8965C71.0806 21.5911 71.3039 21.3382 71.5956 21.1377C71.8873 20.9326 72.2382 20.7777 72.6483 20.6729C73.0585 20.568 73.5165 20.5156 74.0223 20.5156H75.4921ZM83.4693 23.5645V14.5H84.7408V25H83.5787L83.4693 23.5645ZM78.4928 21.3838V21.2402C78.4928 20.6751 78.5611 20.1624 78.6979 19.7021C78.8391 19.2373 79.0374 18.8385 79.2926 18.5059C79.5523 18.1732 79.86 17.918 80.2154 17.7402C80.5755 17.5579 80.9765 17.4668 81.4186 17.4668C81.8834 17.4668 82.289 17.5488 82.6354 17.7129C82.9863 17.8724 83.2825 18.1071 83.524 18.417C83.7701 18.7223 83.9638 19.0915 84.1051 19.5244C84.2464 19.9574 84.3443 20.4473 84.399 20.9941V21.623C84.3489 22.1654 84.2509 22.653 84.1051 23.0859C83.9638 23.5189 83.7701 23.888 83.524 24.1934C83.2825 24.4987 82.9863 24.7334 82.6354 24.8975C82.2844 25.057 81.8743 25.1367 81.4049 25.1367C80.9719 25.1367 80.5755 25.0433 80.2154 24.8564C79.86 24.6696 79.5523 24.4076 79.2926 24.0703C79.0374 23.7331 78.8391 23.3366 78.6979 22.8809C78.5611 22.4206 78.4928 21.9215 78.4928 21.3838ZM79.7643 21.2402V21.3838C79.7643 21.7529 79.8007 22.0993 79.8736 22.4229C79.9511 22.7464 80.0696 23.0312 80.2291 23.2773C80.3886 23.5234 80.5914 23.7171 80.8375 23.8584C81.0836 23.9951 81.3775 24.0635 81.7193 24.0635C82.1386 24.0635 82.4827 23.9746 82.7516 23.7969C83.025 23.6191 83.2438 23.3844 83.4078 23.0928C83.5719 22.8011 83.6995 22.4844 83.7906 22.1426V20.4951C83.7359 20.2445 83.6562 20.0029 83.5514 19.7705C83.4511 19.5335 83.3189 19.3239 83.1549 19.1416C82.9954 18.9548 82.7971 18.8066 82.5602 18.6973C82.3277 18.5879 82.052 18.5332 81.733 18.5332C81.3867 18.5332 81.0882 18.6061 80.8375 18.752C80.5914 18.8932 80.3886 19.0892 80.2291 19.3398C80.0696 19.5859 79.9511 19.873 79.8736 20.2012C79.8007 20.5247 79.7643 20.8711 79.7643 21.2402ZM92.253 15.0469V25H90.9336V15.0469H92.253ZM96.4229 19.5244V20.6045H91.9659V19.5244H96.4229ZM97.0996 15.0469V16.127H91.9659V15.0469H97.0996ZM100.135 17.6035V25H98.863V17.6035H100.135ZM98.7673 15.6416C98.7673 15.4365 98.8289 15.2633 98.9519 15.1221C99.0795 14.9808 99.2664 14.9102 99.5125 14.9102C99.754 14.9102 99.9386 14.9808 100.066 15.1221C100.198 15.2633 100.264 15.4365 100.264 15.6416C100.264 15.8376 100.198 16.0062 100.066 16.1475C99.9386 16.2842 99.754 16.3525 99.5125 16.3525C99.2664 16.3525 99.0795 16.2842 98.9519 16.1475C98.8289 16.0062 98.7673 15.8376 98.7673 15.6416ZM103.819 14.5V25H102.547V14.5H103.819ZM109.198 25.1367C108.683 25.1367 108.216 25.0501 107.797 24.877C107.382 24.6992 107.025 24.4508 106.724 24.1318C106.428 23.8128 106.2 23.4346 106.04 22.9971C105.881 22.5596 105.801 22.0811 105.801 21.5615V21.2744C105.801 20.6729 105.89 20.1374 106.068 19.668C106.245 19.194 106.487 18.793 106.792 18.4648C107.098 18.1367 107.444 17.8883 107.831 17.7197C108.219 17.5511 108.62 17.4668 109.034 17.4668C109.563 17.4668 110.019 17.5579 110.402 17.7402C110.789 17.9225 111.106 18.1777 111.352 18.5059C111.598 18.8294 111.78 19.2122 111.899 19.6543C112.017 20.0918 112.076 20.5703 112.076 21.0898V21.6572H106.553V20.625H110.812V20.5293C110.793 20.2012 110.725 19.8822 110.607 19.5723C110.493 19.2624 110.31 19.0072 110.06 18.8066C109.809 18.6061 109.467 18.5059 109.034 18.5059C108.747 18.5059 108.483 18.5674 108.241 18.6904C108 18.8089 107.793 18.9867 107.619 19.2236C107.446 19.4606 107.312 19.75 107.216 20.0918C107.12 20.4336 107.072 20.8278 107.072 21.2744V21.5615C107.072 21.9124 107.12 22.2428 107.216 22.5527C107.316 22.8581 107.46 23.127 107.647 23.3594C107.838 23.5918 108.068 23.7741 108.337 23.9062C108.611 24.0384 108.92 24.1045 109.267 24.1045C109.713 24.1045 110.092 24.0133 110.402 23.8311C110.711 23.6488 110.983 23.4049 111.215 23.0996L111.981 23.708C111.821 23.9495 111.618 24.1797 111.372 24.3984C111.126 24.6172 110.823 24.7949 110.463 24.9316C110.108 25.0684 109.686 25.1367 109.198 25.1367Z" fill="white"/>
</svg>
