<?xml version="1.0" encoding="UTF-8"?>
<svg id="Layer_2" data-name="Layer 2" xmlns="http://www.w3.org/2000/svg" viewBox="0 0 12.09 10.72">
  <g id="Layer_1-2" data-name="Layer 1">
    <path fill="#fff" class="cls-1" d="M0,3.28c.18,0,.36,0,.54,0,.02,0,.05,.02,.06,.04,.3,.43,.6,.87,.89,1.3,.03,.04,.05,.05,.09,.04,1.34-.13,2.69-.25,4.03-.38,.02,0,.04,0,.07,0C5.16,2.85,4.63,1.43,4.11,0c.02,0,.04,0,.06,0,.41,.03,.81,.07,1.22,.1,.04,0,.06,.01,.09,.05,.27,.4,.55,.79,.83,1.18,.02,.03,.05,.04,.09,.04,.42-.05,.84-.02,1.23,.16,.08,.04,.16,.08,.23,.14,.24,.18,.24,.47,0,.65-.17,.12-.36,.19-.56,.24-.03,0-.06,.01-.1,.02,.04,.06,.09,.12,.13,.18,.33,.47,.66,.94,.99,1.42,.03,.04,.06,.06,.11,.06,.78,.09,1.56,.18,2.35,.28,.33,.04,.65,.11,.94,.27,.13,.07,.25,.16,.33,.29,.15,.24,.08,.55-.16,.74-.25,.19-.54,.29-.84,.34-.37,.06-.74,.1-1.12,.15-.5,.06-.99,.12-1.49,.18-.05,0-.08,.02-.11,.07-.37,.53-.73,1.05-1.1,1.57,0,0,0,.01-.01,.03,.02,0,.04,.01,.07,.02,.21,.05,.41,.11,.58,.25,.06,.05,.11,.1,.15,.16,.1,.16,.04,.36-.14,.49-.22,.16-.47,.24-.74,.28-.24,.04-.48,.04-.72,.01-.04,0-.06,0-.08,.04-.28,.4-.56,.8-.83,1.19-.01,.02-.04,.04-.06,.04-.42,.04-.84,.07-1.26,.1,0,0-.02,0-.03,0,.53-1.42,1.06-2.85,1.59-4.28-.08,0-.16-.01-.23-.02-1.29-.12-2.58-.24-3.87-.37-.04,0-.06,0-.09,.04-.3,.44-.59,.87-.89,1.31-.01,.02-.04,.04-.05,.04-.19,0-.37,0-.56,0,0-1.39,0-2.77,0-4.17Z"/>
  </g>
</svg>
